<svg width="427" height="141" viewBox="0 0 427 141" fill="none" xmlns="http://www.w3.org/2000/svg">
<path d="M0 70.58V140.08H107L0 70.58Z" fill="url(#paint0_linear_203_31)"/>
<path d="M0 1.07996V70.58H107L0 1.07996Z" fill="url(#paint1_linear_203_31)"/>
<path d="M0 70.58H107V140.08L0 70.58Z" fill="#120C2C"/>
<path d="M165.592 70.944C159.32 70.944 154.36 69.536 150.712 66.72C147.064 63.84 145.24 59.968 145.24 55.104H157.048C157.048 57.152 157.784 58.72 159.256 59.808C160.792 60.896 162.904 61.44 165.592 61.44H169.816C172.696 61.44 174.904 60.896 176.44 59.808C178.04 58.72 178.84 57.152 178.84 55.104C178.84 53.184 178.296 51.776 177.208 50.88C176.12 49.92 174.456 49.28 172.216 48.96L159.064 47.232C154.84 46.656 151.576 45.024 149.272 42.336C147.032 39.648 145.912 36.16 145.912 31.872C145.912 26.88 147.576 23.072 150.904 20.448C154.232 17.76 159.032 16.416 165.304 16.416H169.72C175.608 16.416 180.344 17.76 183.928 20.448C187.512 23.136 189.368 26.72 189.496 31.2H177.592C177.528 29.536 176.792 28.224 175.384 27.264C173.976 26.24 172.088 25.728 169.72 25.728H165.304C162.744 25.728 160.792 26.272 159.448 27.36C158.104 28.384 157.432 29.792 157.432 31.584C157.432 33.184 157.912 34.368 158.872 35.136C159.896 35.904 161.368 36.384 163.288 36.576L175.672 38.304C180.536 38.88 184.184 40.608 186.616 43.488C189.112 46.304 190.36 50.112 190.36 54.912C190.36 60.032 188.6 64 185.08 66.816C181.624 69.568 176.536 70.944 169.816 70.944H165.592ZM203.955 70.08V-4.57764e-05H215.955V17.28L215.667 27.072C216.307 23.744 217.875 21.12 220.371 19.2C222.867 17.28 226.035 16.32 229.875 16.32C235.059 16.32 239.187 18.048 242.259 21.504C245.395 24.96 246.963 29.6 246.963 35.424V70.08H234.963V36.864C234.963 33.6 234.099 31.104 232.371 29.376C230.707 27.584 228.435 26.688 225.555 26.688C222.547 26.688 220.179 27.584 218.451 29.376C216.787 31.168 215.955 33.728 215.955 37.056V70.08H203.955ZM277.069 71.04C271.693 71.04 267.437 69.536 264.301 66.528C261.229 63.456 259.693 59.456 259.693 54.528C259.693 49.408 261.453 45.344 264.973 42.336C268.493 39.264 273.325 37.728 279.469 37.728H292.333V33.984C292.333 28.672 289.229 26.016 283.021 26.016C280.205 26.016 277.965 26.56 276.301 27.648C274.637 28.736 273.709 30.272 273.517 32.256H261.997C262.253 27.52 264.237 23.68 267.949 20.736C271.725 17.792 276.781 16.32 283.117 16.32C289.837 16.32 295.053 17.888 298.765 21.024C302.477 24.16 304.333 28.576 304.333 34.272V70.08H292.621V60.192C292.173 63.584 290.573 66.24 287.821 68.16C285.069 70.08 281.485 71.04 277.069 71.04ZM280.909 61.248C284.429 61.248 287.213 60.384 289.261 58.656C291.309 56.928 292.333 54.624 292.333 51.744V45.504H280.045C277.421 45.504 275.341 46.24 273.805 47.712C272.269 49.184 271.501 51.072 271.501 53.376C271.501 55.744 272.301 57.664 273.901 59.136C275.565 60.544 277.901 61.248 280.909 61.248ZM321 70.08V17.28H332.712V27.552C333.352 24.096 334.92 21.376 337.416 19.392C339.976 17.344 343.272 16.32 347.304 16.32C352.68 16.32 356.872 18.048 359.88 21.504C362.888 24.96 364.392 29.792 364.392 36V40.992H352.392V36.576C352.392 33.376 351.56 30.944 349.896 29.28C348.232 27.552 345.864 26.688 342.792 26.688C339.592 26.688 337.16 27.648 335.496 29.568C333.832 31.488 333 34.208 333 37.728V70.08H321ZM393.25 71.04C388.13 71.04 383.97 69.216 380.77 65.568C377.634 61.92 376.066 57.024 376.066 50.88V36.576C376.066 30.368 377.634 25.44 380.77 21.792C383.906 18.144 388.066 16.32 393.25 16.32C396.898 16.32 399.97 17.248 402.466 19.104C405.026 20.96 406.818 23.552 407.842 26.88L407.458 14.784V-4.57764e-05H419.458V70.08H407.746V60.48C406.786 63.808 405.058 66.4 402.562 68.256C400.066 70.112 396.962 71.04 393.25 71.04ZM397.762 60.672C400.834 60.672 403.202 59.744 404.866 57.888C406.594 56.032 407.458 53.408 407.458 50.016V37.344C407.458 33.952 406.594 31.328 404.866 29.472C403.202 27.616 400.834 26.688 397.762 26.688C394.69 26.688 392.29 27.52 390.562 29.184C388.898 30.848 388.066 33.408 388.066 36.864V50.496C388.066 53.952 388.898 56.512 390.562 58.176C392.29 59.84 394.69 60.672 397.762 60.672ZM168.664 140.04C164.12 140.04 160.152 139.208 156.76 137.544C153.432 135.816 150.84 133.416 148.984 130.344C147.128 127.208 146.2 123.528 146.2 119.304V106.056C146.2 101.832 147.128 98.184 148.984 95.112C150.84 91.976 153.432 89.576 156.76 87.912C160.152 86.184 164.12 85.32 168.664 85.32C175.256 85.32 180.536 87.048 184.504 90.504C188.536 93.896 190.648 98.536 190.84 104.424H179.032C178.84 101.672 177.784 99.56 175.864 98.088C174.008 96.552 171.608 95.784 168.664 95.784C165.4 95.784 162.84 96.68 160.984 98.472C159.128 100.2 158.2 102.696 158.2 105.96V119.304C158.2 122.568 159.128 125.096 160.984 126.888C162.84 128.68 165.4 129.576 168.664 129.576C171.672 129.576 174.104 128.84 175.96 127.368C177.816 125.832 178.84 123.688 179.032 120.936H190.84C190.648 126.824 188.536 131.496 184.504 134.952C180.536 138.344 175.256 140.04 168.664 140.04ZM205.875 139.08V86.28H217.587V96.552C218.227 93.096 219.795 90.376 222.291 88.392C224.851 86.344 228.147 85.32 232.179 85.32C237.555 85.32 241.747 87.048 244.755 90.504C247.763 93.96 249.267 98.792 249.267 105V109.992H237.267V105.576C237.267 102.376 236.435 99.944 234.771 98.28C233.107 96.552 230.739 95.688 227.667 95.688C224.467 95.688 222.035 96.648 220.371 98.568C218.707 100.488 217.875 103.208 217.875 106.728V139.08H205.875ZM258.637 139.08V86.28H268.621V93.96H268.909C269.101 91.4 269.997 89.32 271.597 87.72C273.197 86.12 275.213 85.32 277.645 85.32C280.013 85.32 282.029 86.088 283.693 87.624C285.357 89.096 286.477 91.112 287.053 93.672C287.309 91.112 288.237 89.096 289.837 87.624C291.501 86.088 293.581 85.32 296.077 85.32C299.277 85.32 301.933 86.6 304.045 89.16C306.157 91.656 307.213 94.888 307.213 98.856V139.08H296.653V99.72C296.653 97.992 296.237 96.648 295.405 95.688C294.637 94.664 293.517 94.152 292.045 94.152C289.165 94.152 287.725 96.008 287.725 99.72V139.08H278.125V99.72C278.125 97.992 277.741 96.648 276.973 95.688C276.269 94.664 275.213 94.152 273.805 94.152C270.733 94.152 269.197 96.008 269.197 99.72V139.08H258.637ZM340.488 140.04C337.8 140.04 335.624 139.24 333.96 137.64C332.36 135.976 331.56 133.832 331.56 131.208C331.56 128.584 332.36 126.44 333.96 124.776C335.624 123.112 337.8 122.28 340.488 122.28C343.176 122.28 345.32 123.112 346.92 124.776C348.584 126.44 349.416 128.584 349.416 131.208C349.416 133.832 348.584 135.976 346.92 137.64C345.32 139.24 343.176 140.04 340.488 140.04Z" fill="black"/>
<defs>
<linearGradient id="paint0_linear_203_31" x1="53.5" y1="1.07996" x2="53.5" y2="140.08" gradientUnits="userSpaceOnUse">
<stop stop-color="#6B4DE6"/>
<stop offset="1" stop-color="#1A1644"/>
</linearGradient>
<linearGradient id="paint1_linear_203_31" x1="53.5" y1="1.07996" x2="53.5" y2="140.08" gradientUnits="userSpaceOnUse">
<stop stop-color="#6B4DE6"/>
<stop offset="1" stop-color="#1A1644"/>
</linearGradient>
</defs>
</svg>
