<svg width="422" height="141" viewBox="0 0 422 141" fill="none" xmlns="http://www.w3.org/2000/svg">
<path d="M102 140.08L102 70.58L1.73888e-05 70.58L102 140.08Z" fill="#382A73"/>
<path d="M0 1.07996V35.83H51L0 1.07996Z" fill="#5A42BC"/>
<path d="M0 35.83V70.58H51L0 35.83Z" fill="#5A42BC"/>
<path d="M0 105.33V140.08H51L0 105.33Z" fill="#5A42BC"/>
<path d="M51 35.83V70.58H102L51 35.83Z" fill="#5A42BC"/>
<path d="M160.592 70.944C154.32 70.944 149.36 69.536 145.712 66.72C142.064 63.84 140.24 59.968 140.24 55.104H152.048C152.048 57.152 152.784 58.72 154.256 59.808C155.792 60.896 157.904 61.44 160.592 61.44H164.816C167.696 61.44 169.904 60.896 171.44 59.808C173.04 58.72 173.84 57.152 173.84 55.104C173.84 53.184 173.296 51.776 172.208 50.88C171.12 49.92 169.456 49.28 167.216 48.96L154.064 47.232C149.84 46.656 146.576 45.024 144.272 42.336C142.032 39.648 140.912 36.16 140.912 31.872C140.912 26.88 142.576 23.072 145.904 20.448C149.232 17.76 154.032 16.416 160.304 16.416H164.72C170.608 16.416 175.344 17.76 178.928 20.448C182.512 23.136 184.368 26.72 184.496 31.2H172.592C172.528 29.536 171.792 28.224 170.384 27.264C168.976 26.24 167.088 25.728 164.72 25.728H160.304C157.744 25.728 155.792 26.272 154.448 27.36C153.104 28.384 152.432 29.792 152.432 31.584C152.432 33.184 152.912 34.368 153.872 35.136C154.896 35.904 156.368 36.384 158.288 36.576L170.672 38.304C175.536 38.88 179.184 40.608 181.616 43.488C184.112 46.304 185.36 50.112 185.36 54.912C185.36 60.032 183.6 64 180.08 66.816C176.624 69.568 171.536 70.944 164.816 70.944H160.592ZM198.955 70.08V-4.57764e-05H210.955V17.28L210.667 27.072C211.307 23.744 212.875 21.12 215.371 19.2C217.867 17.28 221.035 16.32 224.875 16.32C230.059 16.32 234.187 18.048 237.259 21.504C240.395 24.96 241.963 29.6 241.963 35.424V70.08H229.963V36.864C229.963 33.6 229.099 31.104 227.371 29.376C225.707 27.584 223.435 26.688 220.555 26.688C217.547 26.688 215.179 27.584 213.451 29.376C211.787 31.168 210.955 33.728 210.955 37.056V70.08H198.955ZM272.069 71.04C266.693 71.04 262.437 69.536 259.301 66.528C256.229 63.456 254.693 59.456 254.693 54.528C254.693 49.408 256.453 45.344 259.973 42.336C263.493 39.264 268.325 37.728 274.469 37.728H287.333V33.984C287.333 28.672 284.229 26.016 278.021 26.016C275.205 26.016 272.965 26.56 271.301 27.648C269.637 28.736 268.709 30.272 268.517 32.256H256.997C257.253 27.52 259.237 23.68 262.949 20.736C266.725 17.792 271.781 16.32 278.117 16.32C284.837 16.32 290.053 17.888 293.765 21.024C297.477 24.16 299.333 28.576 299.333 34.272V70.08H287.621V60.192C287.173 63.584 285.573 66.24 282.821 68.16C280.069 70.08 276.485 71.04 272.069 71.04ZM275.909 61.248C279.429 61.248 282.213 60.384 284.261 58.656C286.309 56.928 287.333 54.624 287.333 51.744V45.504H275.045C272.421 45.504 270.341 46.24 268.805 47.712C267.269 49.184 266.501 51.072 266.501 53.376C266.501 55.744 267.301 57.664 268.901 59.136C270.565 60.544 272.901 61.248 275.909 61.248ZM316 70.08V17.28H327.712V27.552C328.352 24.096 329.92 21.376 332.416 19.392C334.976 17.344 338.272 16.32 342.304 16.32C347.68 16.32 351.872 18.048 354.88 21.504C357.888 24.96 359.392 29.792 359.392 36V40.992H347.392V36.576C347.392 33.376 346.56 30.944 344.896 29.28C343.232 27.552 340.864 26.688 337.792 26.688C334.592 26.688 332.16 27.648 330.496 29.568C328.832 31.488 328 34.208 328 37.728V70.08H316ZM388.25 71.04C383.13 71.04 378.97 69.216 375.77 65.568C372.634 61.92 371.066 57.024 371.066 50.88V36.576C371.066 30.368 372.634 25.44 375.77 21.792C378.906 18.144 383.066 16.32 388.25 16.32C391.898 16.32 394.97 17.248 397.466 19.104C400.026 20.96 401.818 23.552 402.842 26.88L402.458 14.784V-4.57764e-05H414.458V70.08H402.746V60.48C401.786 63.808 400.058 66.4 397.562 68.256C395.066 70.112 391.962 71.04 388.25 71.04ZM392.762 60.672C395.834 60.672 398.202 59.744 399.866 57.888C401.594 56.032 402.458 53.408 402.458 50.016V37.344C402.458 33.952 401.594 31.328 399.866 29.472C398.202 27.616 395.834 26.688 392.762 26.688C389.69 26.688 387.29 27.52 385.562 29.184C383.898 30.848 383.066 33.408 383.066 36.864V50.496C383.066 53.952 383.898 56.512 385.562 58.176C387.29 59.84 389.69 60.672 392.762 60.672ZM163.664 140.04C159.12 140.04 155.152 139.208 151.76 137.544C148.432 135.816 145.84 133.416 143.984 130.344C142.128 127.208 141.2 123.528 141.2 119.304V106.056C141.2 101.832 142.128 98.184 143.984 95.112C145.84 91.976 148.432 89.576 151.76 87.912C155.152 86.184 159.12 85.32 163.664 85.32C170.256 85.32 175.536 87.048 179.504 90.504C183.536 93.896 185.648 98.536 185.84 104.424H174.032C173.84 101.672 172.784 99.56 170.864 98.088C169.008 96.552 166.608 95.784 163.664 95.784C160.4 95.784 157.84 96.68 155.984 98.472C154.128 100.2 153.2 102.696 153.2 105.96V119.304C153.2 122.568 154.128 125.096 155.984 126.888C157.84 128.68 160.4 129.576 163.664 129.576C166.672 129.576 169.104 128.84 170.96 127.368C172.816 125.832 173.84 123.688 174.032 120.936H185.84C185.648 126.824 183.536 131.496 179.504 134.952C175.536 138.344 170.256 140.04 163.664 140.04ZM200.875 139.08V86.28H212.587V96.552C213.227 93.096 214.795 90.376 217.291 88.392C219.851 86.344 223.147 85.32 227.179 85.32C232.555 85.32 236.747 87.048 239.755 90.504C242.763 93.96 244.267 98.792 244.267 105V109.992H232.267V105.576C232.267 102.376 231.435 99.944 229.771 98.28C228.107 96.552 225.739 95.688 222.667 95.688C219.467 95.688 217.035 96.648 215.371 98.568C213.707 100.488 212.875 103.208 212.875 106.728V139.08H200.875ZM253.637 139.08V86.28H263.621V93.96H263.909C264.101 91.4 264.997 89.32 266.597 87.72C268.197 86.12 270.213 85.32 272.645 85.32C275.013 85.32 277.029 86.088 278.693 87.624C280.357 89.096 281.477 91.112 282.053 93.672C282.309 91.112 283.237 89.096 284.837 87.624C286.501 86.088 288.581 85.32 291.077 85.32C294.277 85.32 296.933 86.6 299.045 89.16C301.157 91.656 302.213 94.888 302.213 98.856V139.08H291.653V99.72C291.653 97.992 291.237 96.648 290.405 95.688C289.637 94.664 288.517 94.152 287.045 94.152C284.165 94.152 282.725 96.008 282.725 99.72V139.08H273.125V99.72C273.125 97.992 272.741 96.648 271.973 95.688C271.269 94.664 270.213 94.152 268.805 94.152C265.733 94.152 264.197 96.008 264.197 99.72V139.08H253.637Z" fill="black"/>
</svg>
