<svg id="analytic" xmlns="http://www.w3.org/2000/svg" viewBox="0 0 24 24"><!-- Icon from Cuida Icons by Sysvale - https://github.com/Sysvale/cuida-icons/blob/main/LICENSE --><g class="chart-column-outline"><g fill="currentColor" fill-rule="evenodd" class="Vector" clip-rule="evenodd"><path d="M6 2h12a4 4 0 0 1 4 4v12a4 4 0 0 1-4 4H6a4 4 0 0 1-4-4V6a4 4 0 0 1 4-4m0 2a2 2 0 0 0-2 2v12a2 2 0 0 0 2 2h12a2 2 0 0 0 2-2V6a2 2 0 0 0-2-2z"/><path d="M12 6a1 1 0 0 1 1 1v10a1 1 0 1 1-2 0V7a1 1 0 0 1 1-1M7 9a1 1 0 0 1 1 1v7a1 1 0 1 1-2 0v-7a1 1 0 0 1 1-1m10 3a1 1 0 0 1 1 1v4a1 1 0 1 1-2 0v-4a1 1 0 0 1 1-1"/></g></g></svg>