<svg id="funnel" xmlns="http://www.w3.org/2000/svg" viewBox="0 0 24 24"><!-- Icon from Cuida Icons by Sysvale - https://github.com/Sysvale/cuida-icons/blob/main/LICENSE --><g class="funnel-outline"><g fill="currentColor" fill-rule="evenodd" class="Vector" clip-rule="evenodd"><path d="M10.42 13.154a.6.6 0 0 0-.197-.443l-4.83-4.356A1.2 1.2 0 0 1 5 7.47V5.192C5 4.534 5.534 4 6.192 4h11.616C18.466 4 19 4.534 19 5.192v2.309c0 .32-.128.625-.356.85l-4.434 4.363a.6.6 0 0 0-.178.425v3.893c0 .19-.09.368-.242.48l-2.42 1.787a.596.596 0 0 1-.95-.48zm5.612.573l4.015-3.951c.61-.6.953-1.42.953-2.275V5.192A3.19 3.19 0 0 0 17.808 2H6.192A3.19 3.19 0 0 0 3 5.192V7.47a3.2 3.2 0 0 0 1.054 2.37l4.365 3.938v5.041c0 2.13 2.424 3.354 4.138 2.089l2.42-1.787a2.6 2.6 0 0 0 1.055-2.089z"/><path d="M3 7a1 1 0 0 1 1-1h15a1 1 0 1 1 0 2H4a1 1 0 0 1-1-1"/></g></g></svg>