<svg xmlns="http://www.w3.org/2000/svg" id="list" viewBox="0 0 24 24"><!-- Icon from Cuida Icons by Sysvale - https://github.com/Sysvale/cuida-icons/blob/main/LICENSE --><g class="list-outline"><g fill="currentColor" class="Vector"><path fill-rule="evenodd" d="M7 7a1 1 0 0 1 1-1h11a1 1 0 1 1 0 2H8a1 1 0 0 1-1-1m0 5a1 1 0 0 1 1-1h11a1 1 0 1 1 0 2H8a1 1 0 0 1-1-1m0 5a1 1 0 0 1 1-1h11a1 1 0 1 1 0 2H8a1 1 0 0 1-1-1" clip-rule="evenodd"/><path d="M6 7a1 1 0 1 1-2 0a1 1 0 0 1 2 0m0 5a1 1 0 1 1-2 0a1 1 0 0 1 2 0m0 5a1 1 0 1 1-2 0a1 1 0 0 1 2 0"/></g></g></svg>